<?xml version="1.0" standalone="no"?>
<!DOCTYPE svg PUBLIC "-//W3C//DTD SVG 20010904//EN"
 "http://www.w3.org/TR/2001/REC-SVG-20010904/DTD/svg10.dtd">
<svg version="1.0" xmlns="http://www.w3.org/2000/svg"
 width="260.000000pt" height="260.000000pt" viewBox="0 0 260.000000 260.000000"
 preserveAspectRatio="xMidYMid meet">
<metadata>
Created by potrace 1.14, written by Peter Selinger 2001-2017
</metadata>
<g transform="translate(0.000000,260.000000) scale(0.100000,-0.100000)"
fill="#000000" stroke="none">
<path d="M177 2359 c-66 -18 -127 -69 -157 -132 -16 -33 -19 -66 -20 -246 l-1
-209 118 2 118 1 0 175 0 175 1063 3 c584 1 1063 -1 1063 -5 5 -27 3 -1637 -1
-1644 -4 -5 -186 -10 -415 -11 l-409 -3 0 -108 c-1 -62 3 -112 9 -116 10 -7
847 -6 875 1 38 10 65 21 77 32 41 33 67 66 84 105 18 41 19 75 17 935 -3 829
-4 893 -21 922 -26 47 -65 83 -117 107 l-45 21 -1108 1 c-609 0 -1117 -3
-1130 -6z"/>
<path d="M1127 2022 c-15 -3 -17 -29 -17 -252 0 -137 -4 -259 -9 -272 -11 -31
-53 -52 -84 -44 -14 3 -38 19 -53 35 l-27 29 -58 -44 c-32 -24 -60 -48 -63
-53 -9 -13 74 -92 118 -112 52 -24 171 -26 224 -3 67 28 120 94 136 171 9 38
11 531 3 539 -6 6 -144 11 -170 6z"/>
<path d="M1413 2022 c-13 -2 -23 -6 -23 -8 0 -4 29 -171 46 -264 2 -14 7 -41
10 -60 3 -19 7 -42 9 -50 2 -8 6 -28 9 -45 6 -37 34 -201 40 -235 2 -14 5 -33
5 -43 1 -16 12 -17 123 -15 l122 3 28 150 c15 83 33 184 40 225 12 74 12 74
19 35 4 -22 22 -116 39 -210 17 -93 33 -178 36 -187 5 -16 20 -18 124 -18
l118 0 6 28 c3 15 8 43 11 62 3 19 7 46 10 60 6 30 6 32 56 329 21 129 37 236
35 238 -6 7 -165 7 -171 1 -8 -8 -11 -25 -41 -269 -22 -184 -22 -180 -23 -224
-2 -55 -15 -28 -29 60 -14 86 -14 86 -54 270 -17 83 -35 155 -39 160 -6 8
-105 12 -151 6 -12 -2 -109 -458 -111 -528 -1 -21 -10 -5 -12 20 -3 32 -16
158 -20 187 -2 14 -7 52 -11 85 -3 33 -8 69 -10 80 -2 11 -7 47 -10 80 -3 33
-10 64 -14 68 -8 9 -125 15 -167 9z"/>
<path d="M0 1418 l0 -118 33 -1 c180 -6 397 -72 530 -163 21 -14 40 -26 43
-26 3 0 11 -6 19 -12 30 -29 56 -48 66 -48 5 0 7 -4 4 -10 -3 -5 -2 -10 3 -10
12 0 95 -83 131 -130 14 -19 28 -37 31 -40 37 -34 131 -228 161 -330 20 -69
30 -125 36 -190 4 -48 9 -92 11 -100 1 -3 54 -5 117 -5 l115 0 -5 70 c-9 111
-20 181 -40 260 -93 357 -342 665 -671 829 -54 28 -108 53 -119 57 -84 30
-122 40 -205 58 -53 11 -104 20 -115 20 -11 0 -48 2 -82 4 l-63 3 0 -118z"/>
<path d="M2 948 l3 -122 30 -1 c17 -1 48 -5 70 -10 22 -5 44 -7 49 -6 4 1 13
-2 20 -7 6 -6 25 -13 43 -16 17 -4 37 -14 43 -22 7 -7 16 -11 21 -8 5 3 9 0 9
-5 0 -6 5 -11 11 -11 12 0 87 -58 124 -95 87 -88 163 -264 165 -380 l0 -31
113 2 c61 1 115 2 118 3 4 1 4 86 -1 86 -1 0 -3 14 -5 30 -7 62 -14 95 -25
115 -6 11 -9 20 -6 20 14 0 -84 199 -108 219 -9 8 -16 18 -16 24 0 12 -112
123 -165 162 -22 17 -43 34 -47 40 -4 5 -8 6 -8 1 0 -5 -8 -1 -19 8 -20 18
-157 78 -206 90 -58 15 -71 17 -130 22 -33 3 -66 7 -73 9 -10 4 -12 -22 -10
-117z"/>
<path d="M2 414 l3 -179 165 -1 c91 0 170 2 176 4 15 4 3 66 -32 165 -4 9 -10
17 -15 17 -5 0 -9 5 -9 10 0 6 -17 29 -37 51 -44 47 -140 97 -206 105 l-47 7
2 -179z"/>
</g>
</svg>
