<?xml version="1.0" standalone="no"?>
<!DOCTYPE svg PUBLIC "-//W3C//DTD SVG 20010904//EN"
 "http://www.w3.org/TR/2001/REC-SVG-20010904/DTD/svg10.dtd">
<svg version="1.0" xmlns="http://www.w3.org/2000/svg"
 width="260.000000pt" height="260.000000pt" viewBox="0 0 260.000000 260.000000"
 preserveAspectRatio="xMidYMid meet">
<metadata>
Created by potrace 1.14, written by Peter Selinger 2001-2017
</metadata>
<g transform="translate(0.000000,260.000000) scale(0.100000,-0.100000)"
fill="#000000" stroke="none">
<path d="M177 2359 c-66 -18 -127 -69 -157 -132 -16 -33 -19 -66 -20 -246 l-1
-209 118 2 118 1 0 175 0 175 1063 3 c584 1 1063 -1 1063 -5 5 -27 3 -1637 -1
-1644 -4 -5 -186 -10 -415 -11 l-409 -3 0 -108 c-1 -62 3 -112 9 -116 10 -7
847 -6 875 1 38 10 65 21 77 32 41 33 67 66 84 105 18 41 19 75 17 935 -3 829
-4 893 -21 922 -26 47 -65 83 -117 107 l-45 21 -1108 1 c-609 0 -1117 -3
-1130 -6z"/>
<path d="M1127 2022 c-15 -3 -17 -29 -18 -250 0 -136 -2 -255 -4 -265 -12 -65
-110 -72 -150 -11 l-16 25 -59 -46 c-33 -25 -61 -49 -64 -54 -9 -13 74 -92
118 -112 52 -24 171 -26 224 -3 64 26 111 82 134 158 8 30 13 545 4 553 -5 6
-146 9 -169 5z"/>
<path d="M1407 2022 c-21 -4 -21 9 3 -125 11 -62 22 -125 25 -142 2 -16 6 -39
9 -50 2 -11 6 -36 10 -55 3 -19 8 -44 10 -55 2 -11 14 -82 26 -157 l23 -138
119 0 c86 0 120 3 123 13 4 11 13 63 20 114 2 11 6 29 9 40 3 10 8 41 12 68 3
28 8 53 10 56 1 3 6 25 9 50 3 24 10 60 14 79 8 35 8 35 15 -20 7 -50 58 -322
71 -377 5 -22 9 -23 124 -23 l119 0 6 28 c3 15 10 54 15 87 6 33 13 74 16 90
2 17 21 127 40 245 20 118 38 227 41 243 4 25 2 27 -28 28 -94 2 -139 1 -144
-3 -6 -7 -14 -52 -30 -193 -3 -22 -7 -49 -8 -60 -2 -11 -7 -56 -12 -100 -4
-44 -9 -83 -10 -87 -1 -5 -2 -27 -3 -50 -2 -54 -16 -33 -25 37 -4 28 -9 57
-11 65 -2 8 -7 31 -10 50 -3 19 -12 63 -20 96 -8 34 -16 73 -19 85 -3 13 -10
51 -17 84 -7 33 -15 65 -20 70 -7 10 -145 12 -155 3 -7 -7 -80 -348 -95 -440
-6 -43 -15 -78 -19 -78 -4 0 -7 6 -7 13 0 33 -16 175 -33 302 -6 44 -13 105
-16 135 -4 30 -10 59 -14 64 -8 8 -140 14 -173 8z"/>
<path d="M0 1418 l0 -118 33 -1 c180 -6 397 -72 530 -163 21 -14 40 -26 43
-26 3 0 11 -6 19 -12 30 -29 56 -48 66 -48 5 0 7 -4 4 -10 -3 -5 -2 -10 3 -10
12 0 95 -83 131 -130 14 -19 28 -37 31 -40 37 -34 131 -228 161 -330 20 -69
30 -125 36 -190 4 -48 9 -92 11 -100 1 -3 54 -5 117 -5 l115 0 -5 70 c-9 111
-20 181 -40 260 -93 357 -342 665 -671 829 -54 28 -108 53 -119 57 -84 30
-122 40 -205 58 -53 11 -104 20 -115 20 -11 0 -48 2 -82 4 l-63 3 0 -118z"/>
<path d="M2 948 l3 -122 30 -1 c17 -1 48 -5 70 -10 22 -5 44 -7 49 -6 4 1 13
-2 20 -7 6 -6 25 -13 43 -16 17 -4 37 -14 43 -22 7 -7 16 -11 21 -8 5 3 9 0 9
-5 0 -6 5 -11 11 -11 12 0 87 -58 124 -95 87 -88 163 -264 165 -380 l0 -31
113 2 c61 1 115 2 118 3 4 1 4 86 -1 86 -1 0 -3 14 -5 30 -7 62 -14 95 -25
115 -6 11 -9 20 -6 20 14 0 -84 199 -108 219 -9 8 -16 18 -16 24 0 12 -112
123 -165 162 -22 17 -43 34 -47 40 -4 5 -8 6 -8 1 0 -5 -8 -1 -19 8 -20 18
-157 78 -206 90 -58 15 -71 17 -130 22 -33 3 -66 7 -73 9 -10 4 -12 -22 -10
-117z"/>
<path d="M2 414 l3 -179 165 -1 c91 0 170 2 176 4 15 4 3 66 -32 165 -4 9 -10
17 -15 17 -5 0 -9 5 -9 10 0 6 -17 29 -37 51 -44 47 -140 97 -206 105 l-47 7
2 -179z"/>
</g>
</svg>
